<svg width="24" height="25" viewBox="0 0 24 25" fill="none" xmlns="http://www.w3.org/2000/svg">
<g id="bell-02" clip-path="url(#clip0_1_6640)">
<path id="Icon" d="M14 21.2109H10M18 8.21094C18 6.61964 17.3679 5.09352 16.2426 3.9683C15.1174 2.84308 13.5913 2.21094 12 2.21094C10.4087 2.21094 8.88258 2.84308 7.75736 3.9683C6.63214 5.09352 6 6.61964 6 8.21094C6 11.3011 5.22047 13.4169 4.34967 14.8163C3.61513 15.9968 3.24786 16.587 3.26133 16.7517C3.27624 16.934 3.31486 17.0035 3.46178 17.1125C3.59446 17.2109 4.19259 17.2109 5.38886 17.2109H18.6111C19.8074 17.2109 20.4055 17.2109 20.5382 17.1125C20.6851 17.0035 20.7238 16.934 20.7387 16.7517C20.7521 16.587 20.3849 15.9968 19.6503 14.8164C18.7795 13.4169 18 11.3011 18 8.21094Z" stroke="#101828" stroke-width="2" stroke-linecap="round" stroke-linejoin="round"/>
<circle id="Ellipse 2" cx="18.0839" cy="4.21094" r="4" fill="#F04438"/>
</g>
<defs>
<clipPath id="clip0_1_6640">
<rect width="24" height="24" fill="white" transform="translate(0 0.210938)"/>
</clipPath>
</defs>
</svg>
